<svg width="11" height="11" viewBox="0 0 11 11" fill="none" xmlns="http://www.w3.org/2000/svg">
<g clip-path="url(#clip0_159_264)">
<mask id="mask0_159_264" style="mask-type:luminance" maskUnits="userSpaceOnUse" x="0" y="0" width="11" height="11">
<path d="M11 0H0V11H11V0Z" fill="white"/>
</mask>
<g mask="url(#mask0_159_264)">
<path d="M0.239245 3.67187H2.49193V10.9176H0.239245V3.67187ZM1.36565 0.0701294C2.08563 0.0701294 2.67075 0.655246 2.67075 1.37644C2.67075 2.09691 2.08563 2.68202 1.36565 2.68202C0.643973 2.68202 0.0605469 2.09691 0.0605469 1.37644C0.0605469 0.655246 0.643973 0.0701294 1.36565 0.0701294Z" fill="white"/>
<path d="M3.9043 3.67185H6.06437V4.66267H6.09516C6.39581 4.09276 7.13065 3.49243 8.2259 3.49243C10.5064 3.49243 10.9273 4.99265 10.9273 6.94361V10.9176H8.67627V7.39397C8.67627 6.55349 8.66166 5.47272 7.50604 5.47272C6.33411 5.47272 6.15529 6.3888 6.15529 7.3336V10.9176H3.9043V3.67185Z" fill="white"/>
</g>
</g>
<defs>
<clipPath id="clip0_159_264">
<rect width="11" height="11" fill="white"/>
</clipPath>
</defs>
</svg>
