<svg width="148" height="98" viewBox="0 0 148 98" fill="none" xmlns="http://www.w3.org/2000/svg">
<path d="M87.7624 33.606C86.3603 47.1024 86.773 56.2697 89.7624 62.106C92.7518 67.9423 102.262 73.6127 105.262 73.6127C108.262 73.6127 119.933 73.6127 131.262 73.6127V36.4583H124.262H108.262V46.4583V52.4583H115.262V57.4583C112.067 57.4583 111.262 57.4583 109.262 56.9583C107.961 56.6328 106.673 55.9237 105.262 54.4583C103.852 52.9928 102.799 51.959 102.762 43.4583C102.719 33.3693 103.262 29.606 104.762 28.106C105.743 26.1888 109.262 24.106 112.262 24.106H114.262H125.262H131.262V8.76205H123.762C123.762 8.76205 105.762 8.8303 105.262 8.8303C104.762 8.8303 98.7617 9.8303 95.7624 12.606C94.0194 13.8721 89.1645 20.1096 87.7624 33.606Z" fill="white"/>
<path d="M59.2617 8.58887L59.2624 52.2215L80.792 53.106C80.792 53.106 90.4474 52.753 95.7301 47.4379C101.013 42.1227 101.694 39.4652 102.206 30.8163C102.864 19.6756 96.9546 13.8291 95.7617 12.5889C94.5689 11.3487 91.0523 9.98374 84.2617 8.58887H64.7617H59.2617ZM82.2624 24.606C83.1061 25.1317 84.2563 25.835 84.7624 26.606C85.5723 27.8677 85.7624 28.2228 85.7624 30.606C85.7624 32.606 85.2624 33.606 84.2624 34.606C84.2624 34.606 83.2624 36.106 81.2624 36.606C81.2624 36.606 79.9345 36.606 76.7624 36.606H75.2624V30.8163V24.106H77.7624C77.7624 24.106 81.2624 24.106 82.2624 24.606Z" fill="white"/>
<path d="M61.2625 30.106L59.7625 52.5889L81.2625 73.5889L105.262 73.6127L61.2625 30.106Z" fill="white"/>
<path d="M45.2624 8.58887V44.106L31.7624 57.5889H17.2624V60.606L17.261 73.5889L40.2624 73.5889L60.2624 53.0889L59.7617 8.58887H45.2624Z" fill="white"/>
<path d="M87.7469 33.2738C86.46 45.5123 87.8488 57.2547 90.5924 62.547C93.3359 67.8393 99.1468 70.9816 101.735 71.8086C104.324 72.6355 108.234 72.4375 118.632 72.4375H130.262V55.0526V37.6677H119.598H108.934V44.5561V51.4444H112.6H116.299L116.199 54.9542L116.099 58.4968L112.9 58.464C109.967 58.464 109.467 58.3656 107.501 57.4143C105.035 56.2007 103.868 55.0198 102.635 52.4285C101.769 50.6572 101.769 50.4932 101.735 42.7848C101.669 34.3547 102.002 30.6481 102.935 28.8113C103.835 27.0728 105.868 25.2031 107.934 24.2518L109.767 23.399L120.031 23.3006L130.262 23.1694V16.3138V9.58887H118.762C109.53 9.58887 106.734 9.55666 104.701 9.98309C101.735 10.5735 98.8028 11.82 96.4366 13.5257C94.837 14.6737 89.0337 21.0352 87.7469 33.2738Z" fill="#2F53CD"/>
<path d="M60.2617 9.58886L60.4142 50.7804L81.3807 51.6089C81.3807 51.6089 90.7835 51.2783 95.928 46.2997C101.073 41.3211 101.736 38.8319 102.234 30.7306C102.876 20.2953 97.7535 15.5985 96.5918 14.4369C95.4302 13.2752 89.7617 10.0889 84.2617 9.58886L65.8038 9.45829L60.2617 9.58886ZM83.2539 24.2964C84.0754 24.7888 85.1928 25.8064 85.6857 26.5287C86.4744 27.7104 86.573 28.2029 86.573 30.4351C86.573 32.7331 86.4744 33.0942 85.5871 34.3745C84.9956 35.228 83.944 36.1143 82.9581 36.6067C81.545 37.3618 80.9535 37.4602 77.8644 37.4602H74.4138L74.3152 30.7306C74.2823 27.0539 74.3152 23.804 74.4138 23.5413C74.5452 23.1802 75.3011 23.1146 78.1601 23.2459C81.2821 23.3772 81.9065 23.5085 83.2539 24.2964Z" fill="#BA1E1F"/>
<path d="M60.4142 30.2023L60.2617 51.5889L81.6561 72.5202H103.23L60.4142 30.2023Z" fill="#8C1010"/>
<path d="M46.4565 27.2328V44.9095L39.3914 51.8622L32.3263 58.8148H25.2944H18.2625V65.7018V72.7195L28.7772 72.5889H39.3251L50.0056 62.0287L60.2617 51.5889V9.58887H46.4565V27.2328Z" fill="#001346"/>
<path d="M57.1704 59.0904C55.4847 60.2208 54.5411 62.4252 54.3853 63.1528C54.2296 63.8805 54.2662 64.6718 54.2662 64.6718H56.7673H59.3692L59.3692 58.106C59.3692 58.106 58.5263 58.106 57.1704 59.0904Z" fill="white"/>
<path d="M54.2625 70.1434V73.4263H56.8158H59.3692V70.1434V66.8605H56.8158H54.2625V70.1434Z" fill="white"/>
<path d="M63.4309 59.0904C65.1166 60.2208 66.0603 62.4252 66.216 63.1528C66.3718 63.8805 66.3351 64.6718 66.3351 64.6718H63.834H61.2321L61.2321 58.106C61.2321 58.106 62.075 58.106 63.4309 59.0904Z" fill="white"/>
<path d="M66.3389 70.2386V73.5215H63.7855H61.2321V70.2386V66.9557H63.7855H66.3389V70.2386Z" fill="white"/>
<path d="M9.37448 83.042V82.9879H10.6599V83.0465C10.6599 83.4495 10.7532 83.7487 10.9396 83.9441C11.129 84.1396 11.3966 84.2373 11.7424 84.2373C12.0912 84.2373 12.3589 84.1275 12.5453 83.908C12.7347 83.6885 12.8294 83.3623 12.8294 82.9293V78.5046H14.1194V82.9067C14.1194 83.6194 13.9029 84.1817 13.4699 84.5936C13.0369 85.0026 12.4626 85.207 11.7469 85.207C11.0313 85.207 10.457 85.0176 10.024 84.6387C9.59098 84.2598 9.37448 83.7276 9.37448 83.042ZM15.5496 85.0717L17.9401 78.473H19.3293L21.7378 85.0717H20.3576L18.7429 80.3584C18.7038 80.2501 18.6693 80.1464 18.6392 80.0471C18.6121 79.9449 18.5866 79.8412 18.5625 79.7359H18.5219C18.5009 79.8412 18.4753 79.9449 18.4452 80.0471C18.4152 80.1464 18.3806 80.2501 18.3415 80.3584L16.7268 85.0717H15.5496ZM16.7223 83.5427L17.056 82.6L20.1276 82.6045L20.4659 83.5472L16.7223 83.5427ZM22.9785 81.9776V81.5987C22.9785 80.5764 23.2657 79.7825 23.84 79.2172C24.4174 78.6519 25.1435 78.3693 26.0186 78.3693C26.8966 78.3693 27.5731 78.5873 28.0482 79.0233C28.5233 79.4593 28.7834 80.005 28.8285 80.6606L28.833 80.7237H27.5205L27.516 80.656C27.495 80.3042 27.3627 79.999 27.1191 79.7404C26.8785 79.4788 26.5117 79.348 26.0186 79.348C25.5134 79.348 25.0999 79.542 24.7782 79.9299C24.4565 80.3148 24.2956 80.8605 24.2956 81.5671V82.0092C24.2956 82.7128 24.4549 83.2585 24.7737 83.6464C25.0954 84.0343 25.5104 84.2283 26.0186 84.2283C26.5147 84.2283 26.883 84.0975 27.1236 83.8359C27.3672 83.5713 27.4995 83.2661 27.5205 82.9203V82.8526H28.833L28.8285 82.9203C28.7864 83.5698 28.5263 84.114 28.0482 84.553C27.5701 84.989 26.8936 85.207 26.0186 85.207C25.1405 85.207 24.4144 84.9244 23.84 84.3591C23.2657 83.7938 22.9785 82.9999 22.9785 81.9776ZM30.4842 81.9776V81.5987C30.4842 80.5764 30.7684 79.7825 31.3367 79.2172C31.908 78.6519 32.6447 78.3693 33.5468 78.3693C34.4488 78.3693 35.1855 78.6519 35.7569 79.2172C36.3282 79.7825 36.6138 80.5764 36.6138 81.5987V81.9776C36.6138 82.9999 36.3282 83.7938 35.7569 84.3591C35.1855 84.9244 34.4488 85.207 33.5468 85.207C32.6447 85.207 31.908 84.9244 31.3367 84.3591C30.7684 83.7938 30.4842 82.9999 30.4842 81.9776ZM31.8012 82.0001C31.8012 82.7038 31.9591 83.251 32.2748 83.6419C32.5906 84.0328 33.0145 84.2283 33.5468 84.2283C34.079 84.2283 34.503 84.0328 34.8187 83.6419C35.1374 83.251 35.2968 82.7038 35.2968 82.0001V81.5762C35.2968 80.8725 35.1374 80.3253 34.8187 79.9344C34.503 79.5435 34.079 79.348 33.5468 79.348C33.0145 79.348 32.5906 79.5435 32.2748 79.9344C31.9591 80.3253 31.8012 80.8725 31.8012 81.5762V82.0001ZM35.6125 86.2895L33.8941 84.968L34.7555 84.1516L36.474 85.428L35.6125 86.2895ZM38.5807 82.6902V78.5046H39.8707V82.7083C39.8707 83.2315 39.997 83.6164 40.2496 83.8629C40.5052 84.1065 40.8434 84.2283 41.2644 84.2283C41.6884 84.2283 42.0267 84.105 42.2792 83.8584C42.5348 83.6119 42.6626 83.2285 42.6626 82.7083V78.5046H43.903V82.6902C43.903 83.5352 43.6459 84.1666 43.1317 84.5846C42.6175 84.9996 41.9876 85.207 41.2419 85.207C40.4931 85.207 39.8617 84.9996 39.3475 84.5846C38.8363 84.1666 38.5807 83.5352 38.5807 82.6902ZM46.1134 85.0717V78.5046H50.714V79.4518H47.3989V81.2108H50.2901V82.158H47.3989V84.1245H50.7637V85.0717H46.1134ZM52.2389 83.2089V83.1232H53.5379V83.2044C53.5379 83.5502 53.6597 83.8103 53.9033 83.9847C54.1498 84.1561 54.4911 84.2418 54.9271 84.2418C55.3691 84.2418 55.7059 84.1576 55.9374 83.9892C56.172 83.8208 56.2892 83.6013 56.2892 83.3307C56.2923 83.0631 56.1915 82.8586 55.9871 82.7173C55.7826 82.576 55.303 82.4181 54.5482 82.2437C53.7905 82.0633 53.2357 81.8242 52.8839 81.5265C52.5321 81.2259 52.3562 80.8019 52.3562 80.2546C52.3562 79.7043 52.5802 79.2533 53.0282 78.9015C53.4793 78.5467 54.0987 78.3693 54.8865 78.3693C55.6713 78.3693 56.2953 78.5587 56.7583 78.9376C57.2244 79.3165 57.4574 79.784 57.4574 80.3403V80.426H56.1675V80.3448C56.1675 80.0411 56.0607 79.7976 55.8472 79.6141C55.6337 79.4307 55.3135 79.339 54.8865 79.339C54.4655 79.339 54.1543 79.4127 53.9529 79.56C53.7514 79.7074 53.6507 79.8938 53.6507 80.1193C53.6507 80.3869 53.7469 80.5854 53.9393 80.7147C54.1348 80.844 54.5723 80.9883 55.2519 81.1477C56.0186 81.3281 56.599 81.5792 56.9929 81.9009C57.3868 82.2227 57.5837 82.6752 57.5837 83.2585C57.5837 83.8419 57.3432 84.3125 56.8621 84.6703C56.384 85.0281 55.739 85.207 54.9271 85.207C54.1213 85.207 53.4718 85.0311 52.9786 84.6793C52.4855 84.3245 52.2389 83.8344 52.2389 83.2089ZM62.5053 85.0717V78.5046H64.9409C65.7498 78.5046 66.3752 78.6895 66.8172 79.0594C67.2592 79.4262 67.4803 79.9208 67.4803 80.5433C67.4803 81.1687 67.2592 81.6709 66.8172 82.0498C66.3752 82.4256 65.7498 82.6136 64.9409 82.6136H63.7953V85.0717H62.5053ZM63.7953 81.6754H64.9319C65.401 81.6754 65.7272 81.5671 65.9106 81.3506C66.0971 81.1341 66.1903 80.8665 66.1903 80.5478C66.1903 80.226 66.0971 79.9614 65.9106 79.754C65.7272 79.5465 65.401 79.4427 64.9319 79.4427H63.7953V81.6754ZM66.2579 85.0717L64.6973 82.0407L66.0911 81.9866L67.7283 85.0717H66.2579ZM69.4426 85.0717V78.5046H74.0432V79.4518H70.7281V81.2108H73.6193V82.158H70.7281V84.1245H74.0929V85.0717H69.4426ZM75.1441 85.0717L77.5346 78.473H78.9238L81.3324 85.0717H79.9522L78.3375 80.3584C78.2984 80.2501 78.2638 80.1464 78.2338 80.0471C78.2067 79.9449 78.1811 79.8412 78.1571 79.7359H78.1165C78.0954 79.8412 78.0699 79.9449 78.0398 80.0471C78.0097 80.1464 77.9752 80.2501 77.9361 80.3584L76.3214 85.0717H75.1441ZM76.3168 83.5427L76.6506 82.6L79.7222 82.6045L80.0605 83.5472L76.3168 83.5427ZM82.8302 85.0717V78.5046H84.1202V84.1245H87.2594V85.0717H82.8302ZM87.0974 79.4518V78.5046H92.6001V79.4518H90.4892V85.0717H89.2038V79.4518H87.0974ZM95.7983 85.0717V82.7489L93.5206 78.5046H94.9729L96.2629 81.0394C96.311 81.1296 96.3546 81.2198 96.3937 81.31C96.4328 81.4003 96.4689 81.489 96.5019 81.5762H96.547C96.5801 81.489 96.6162 81.4003 96.6553 81.31C96.6944 81.2198 96.7365 81.1296 96.7816 81.0394L98.0851 78.5046H99.33L97.0838 82.7128V85.0717H95.7983ZM103.692 81.9776V81.5987C103.692 80.5764 103.979 79.7825 104.554 79.2172C105.128 78.6519 105.851 78.3693 106.723 78.3693C107.598 78.3693 108.275 78.5707 108.753 78.9737C109.231 79.3766 109.49 79.8667 109.529 80.4441V80.4892H108.221L108.216 80.4441C108.198 80.1644 108.067 79.9103 107.824 79.6818C107.58 79.4533 107.21 79.339 106.714 79.339C106.218 79.339 105.809 79.5345 105.487 79.9254C105.169 80.3163 105.009 80.8635 105.009 81.5671V82.0092C105.009 82.7158 105.172 83.2646 105.496 83.6555C105.824 84.0433 106.28 84.2373 106.863 84.2373C107.164 84.2373 107.421 84.2087 107.634 84.1516C107.851 84.0915 108.058 83.9952 108.257 83.8629V82.6045H106.773V81.6619H109.529V84.2869C109.288 84.5154 108.944 84.7259 108.496 84.9184C108.048 85.1108 107.504 85.207 106.863 85.207C105.895 85.207 105.124 84.9244 104.549 84.3591C103.978 83.7938 103.692 82.9999 103.692 81.9776ZM111.437 85.0717V78.5046H113.873C114.681 78.5046 115.307 78.6895 115.749 79.0594C116.191 79.4262 116.412 79.9208 116.412 80.5433C116.412 81.1687 116.191 81.6709 115.749 82.0498C115.307 82.4256 114.681 82.6136 113.873 82.6136H112.727V85.0717H111.437ZM112.727 81.6754H113.864C114.333 81.6754 114.659 81.5671 114.842 81.3506C115.029 81.1341 115.122 80.8665 115.122 80.5478C115.122 80.226 115.029 79.9614 114.842 79.754C114.659 79.5465 114.333 79.4427 113.864 79.4427H112.727V81.6754ZM115.19 85.0717L113.629 82.0407L115.023 81.9866L116.66 85.0717H115.19ZM118.126 81.9776V81.5987C118.126 80.5764 118.41 79.7825 118.979 79.2172C119.547 78.6519 120.282 78.3693 121.184 78.3693C122.086 78.3693 122.823 78.6519 123.394 79.2172C123.969 79.7825 124.256 80.5764 124.256 81.5987V81.9776C124.256 82.9999 123.969 83.7938 123.394 84.3591C122.823 84.9244 122.086 85.207 121.184 85.207C120.282 85.207 119.547 84.9244 118.979 84.3591C118.41 83.7938 118.126 82.9999 118.126 81.9776ZM119.443 82.0046C119.443 82.7083 119.601 83.2555 119.917 83.6464C120.233 84.0343 120.657 84.2283 121.189 84.2283C121.721 84.2283 122.145 84.0343 122.461 83.6464C122.779 83.2555 122.939 82.7083 122.939 82.0046V81.5717C122.939 80.868 122.779 80.3223 122.461 79.9344C122.145 79.5435 121.719 79.348 121.184 79.348C120.655 79.348 120.233 79.5435 119.917 79.9344C119.601 80.3223 119.443 80.868 119.443 81.5717V82.0046ZM126.223 82.6902V78.5046H127.513V82.7083C127.513 83.2315 127.639 83.6164 127.892 83.8629C128.147 84.1065 128.485 84.2283 128.906 84.2283C129.33 84.2283 129.669 84.105 129.921 83.8584C130.177 83.6119 130.305 83.2285 130.305 82.7083V78.5046H131.545V82.6902C131.545 83.5352 131.288 84.1666 130.774 84.5846C130.26 84.9996 129.63 85.207 128.884 85.207C128.135 85.207 127.504 84.9996 126.989 84.5846C126.478 84.1666 126.223 83.5352 126.223 82.6902ZM133.755 85.0717V78.5046H136.254C137.069 78.5046 137.696 78.6925 138.135 79.0684C138.574 79.4442 138.794 79.9524 138.794 80.5929C138.794 81.2364 138.574 81.7491 138.135 82.1309C137.696 82.5128 137.068 82.7038 136.25 82.7038H135.041V85.0717H133.755ZM135.045 81.7611H136.227C136.702 81.7611 137.035 81.6498 137.224 81.4273C137.413 81.2048 137.508 80.9267 137.508 80.5929C137.508 80.2621 137.412 79.9885 137.219 79.772C137.03 79.5555 136.699 79.4473 136.227 79.4473H135.045V81.7611Z" fill="white"/>
</svg>
