<svg width="145" height="99" viewBox="0 0 145 99" fill="none" xmlns="http://www.w3.org/2000/svg">
<path d="M47.9436 62.8002C46.1707 63.9891 45.1783 66.3074 45.0145 67.0728C44.8507 67.8381 44.8892 68.6703 44.8892 68.6703H47.5197H50.2561L50.2561 61.7649C50.2561 61.7649 49.3697 61.7649 47.9436 62.8002Z" fill="black"/>
<path d="M44.8853 74.4248V77.8775H47.5707H50.2561V74.4248V70.9721H47.5707H44.8853V74.4248Z" fill="black"/>
<path d="M57.9287 74.4248V77.8775H55.2433H52.5578V74.4248V70.9721H55.2433H57.9287V74.4248Z" fill="black"/>
<path d="M54.8703 62.8002C56.6433 63.9891 57.6357 66.3074 57.7995 67.0728C57.9633 67.8381 57.9248 68.6703 57.9248 68.6703H55.2943H52.5578L52.5578 61.7649C52.5578 61.7649 53.4443 61.7649 54.8703 62.8002Z" fill="black"/>
<path d="M84.571 31.4579C83.0963 45.6523 84.6878 59.2713 87.8318 65.4094C90.9758 71.5476 97.6348 75.1921 100.601 76.1512C103.568 77.1103 108.048 76.8806 119.964 76.8806H133.292V56.7173V36.5541H121.071H108.85V44.5433V52.5325H113.051H117.29L117.176 56.6032L117.061 60.7119L113.395 60.6739C110.034 60.6739 109.461 60.5598 107.208 59.4565C104.382 58.0489 103.046 56.6793 101.632 53.6738C100.64 51.6195 100.64 51.4292 100.601 42.4889C100.525 32.7116 100.907 28.4127 101.976 26.2822C103.007 24.2659 105.337 22.0974 107.705 20.9941L109.805 20.005L121.568 19.8908L133.292 19.7387V11.7875V3.83633H120.117C109.538 3.83633 106.33 3.95045 104 4.44503C100.601 5.12981 97.2406 6.57548 94.5291 8.55376C92.696 9.8853 86.0456 17.2635 84.571 31.4579Z" fill="#2F53CD"/>
<path d="M52.5579 3.83633V51.5987L76.792 52.5563C76.792 52.5563 87.6603 52.1741 93.6066 46.4196C99.5529 40.6651 100.32 37.7879 100.896 28.424C101.637 16.3623 95.7166 10.9336 94.3739 9.59084C93.0312 8.24813 88.2919 5.06521 80.3713 3.95015L58.7873 3.83633H52.5579ZM78.9571 20.987C79.9067 21.5561 81.1982 22.7324 81.768 23.5672C82.6796 24.9331 82.7935 25.5023 82.7935 28.0825C82.7935 30.7386 82.6796 31.156 81.654 32.6358C80.9703 33.6223 79.7548 34.6468 78.6152 35.216C76.9819 36.0887 76.2982 36.2025 72.7276 36.2025H68.7393L68.6253 28.424C68.5873 24.1743 68.6253 20.4178 68.7393 20.1143C68.8912 19.6969 69.7649 19.621 73.0695 19.7728C76.678 19.9246 77.3998 20.0763 78.9571 20.987Z" fill="#BA1E1F"/>
<path d="M52.5579 27.8134V52.3659L77.1104 76.7266H102.047L52.5579 27.8134Z" fill="#8C1010"/>
<path d="M36.2849 24.3576V44.917L28.1537 53.0035L20.0225 61.0899H11.9295H3.83643V69.1001V77.1103H15.9378H28.0774L40.3696 64.828L52.6619 52.5458C48.2718 48.4262 55.4486 55.1395 52.6619 52.5458V3.83634H36.2849V24.3576Z" fill="#001346"/>
<path d="M3.95502 88.2774V88.2205H5.31645V88.2821C5.31645 88.7059 5.4129 89.019 5.60581 89.2214C5.79872 89.4238 6.07543 89.525 6.43595 89.525C6.7933 89.525 7.06844 89.4127 7.26135 89.1882C7.45742 88.9605 7.55545 88.6189 7.55545 88.1636V83.5053H8.92163V88.1303C8.92163 88.8862 8.69551 89.4791 8.24328 89.9092C7.79105 90.3393 7.19019 90.5544 6.44069 90.5544C5.68803 90.5544 5.08559 90.3567 4.63336 89.9614C4.18113 89.5629 3.95502 89.0016 3.95502 88.2774ZM10.4115 90.412L12.9351 83.4721H14.4057L16.953 90.412H15.492L13.7843 85.4644C13.7431 85.3506 13.7084 85.2415 13.6799 85.1371C13.6514 85.0327 13.6245 84.9252 13.5992 84.8145H13.5566C13.5313 84.9252 13.5028 85.0327 13.4712 85.1371C13.4427 85.2415 13.4095 85.3506 13.3716 85.4644L11.6591 90.412H10.4115ZM11.6686 88.8134L12.0196 87.8125L15.2358 87.8173L15.5868 88.8182L11.6686 88.8134ZM18.2437 87.1579V86.7594C18.2437 85.681 18.5441 84.8462 19.145 84.2548C19.749 83.6602 20.5127 83.363 21.4361 83.363C22.3501 83.363 23.0569 83.5923 23.5566 84.0508C24.0594 84.5094 24.3329 85.0849 24.3772 85.7775V85.8439H22.9921L22.9873 85.768C22.9684 85.3948 22.8324 85.0739 22.5794 84.805C22.3295 84.5362 21.9469 84.4018 21.4314 84.4018C20.9064 84.4018 20.4763 84.6011 20.1411 84.9995C19.8091 85.398 19.643 85.9688 19.643 86.712V87.2053C19.643 87.9422 19.8075 88.5114 20.1364 88.9131C20.4684 89.3147 20.9017 89.5155 21.4361 89.5155C21.9485 89.5155 22.3295 89.3795 22.5794 89.1075C22.8292 88.8324 22.9652 88.5114 22.9873 88.1446L22.9921 88.0734H24.3772V88.1446C24.3329 88.834 24.0594 89.408 23.5566 89.8665C23.0569 90.3251 22.3501 90.5544 21.4361 90.5544C20.5127 90.5544 19.749 90.2587 19.145 89.6673C18.5441 89.0728 18.2437 88.2363 18.2437 87.1579ZM26.0995 87.1579V86.7594C26.0995 85.681 26.3984 84.8462 26.9961 84.2548C27.5938 83.6602 28.3654 83.363 29.311 83.363C30.2566 83.363 31.0282 83.6602 31.6259 84.2548C32.2236 84.8462 32.5225 85.681 32.5225 86.7594V87.1579C32.5225 88.2363 32.2236 89.0728 31.6259 89.6673C31.0282 90.2587 30.2566 90.5544 29.311 90.5544C28.3654 90.5544 27.5938 90.2587 26.9961 89.6673C26.3984 89.0728 26.0995 88.2363 26.0995 87.1579ZM27.4989 87.1911C27.4989 87.928 27.6618 88.5004 27.9875 88.9083C28.3164 89.3131 28.7576 89.5155 29.311 89.5155C29.8644 89.5155 30.3056 89.3131 30.6345 88.9083C30.9634 88.5004 31.1278 87.928 31.1278 87.1911V86.7262C31.1278 85.9894 30.9634 85.4186 30.6345 85.0138C30.3056 84.6058 29.8644 84.4018 29.311 84.4018C28.7576 84.4018 28.3164 84.6058 27.9875 85.0138C27.6618 85.4186 27.4989 85.9894 27.4989 86.7262V87.1911ZM31.4788 91.7071L29.662 90.3029L30.5681 89.4301L32.3849 90.7915L31.4788 91.7071ZM34.5816 87.9074V83.5053H35.9478V87.9264C35.9478 88.4766 36.079 88.8798 36.3415 89.136C36.604 89.389 36.955 89.5155 37.3946 89.5155C37.8341 89.5155 38.1852 89.389 38.4477 89.136C38.7133 88.8798 38.8461 88.4766 38.8461 87.9264V83.5053H40.1601V87.9074C40.1601 88.7992 39.8897 89.4633 39.349 89.8997C38.8113 90.3361 38.152 90.5544 37.3708 90.5544C36.5866 90.5544 35.9256 90.3361 35.388 89.8997C34.8504 89.4633 34.5816 88.7992 34.5816 87.9074ZM42.4754 90.412V83.5053H47.295V84.5109H43.8368V86.3467H46.8491V87.3571H43.8368V89.4064H47.3471V90.412H42.4754ZM48.894 88.4529V88.358H50.2744V88.4482C50.2744 88.8087 50.4009 89.0791 50.6538 89.2593C50.9068 89.4396 51.261 89.5297 51.7164 89.5297C52.1718 89.5297 52.5197 89.4428 52.76 89.2688C53.0035 89.0917 53.1253 88.8625 53.1253 88.581C53.1285 88.2995 53.0225 88.0845 52.8075 87.9359C52.5956 87.7872 52.0991 87.6228 51.318 87.4425C50.5273 87.2528 49.9455 86.9998 49.5723 86.6835C49.2023 86.3673 49.0173 85.9214 49.0173 85.3458C49.0173 84.7671 49.2529 84.2927 49.7241 83.9227C50.1985 83.5496 50.8483 83.363 51.6737 83.363C52.4928 83.363 53.1458 83.5622 53.6329 83.9607C54.1199 84.356 54.3634 84.8477 54.3634 85.436V85.5308H52.9972V85.4407C52.9972 85.1245 52.8865 84.8715 52.6652 84.6817C52.4438 84.4888 52.1133 84.3923 51.6737 84.3923C51.2373 84.3923 50.9147 84.4698 50.706 84.6248C50.4973 84.7766 50.3929 84.9711 50.3929 85.2083C50.3929 85.4866 50.4941 85.6937 50.6965 85.8297C50.9021 85.9625 51.3575 86.1127 52.0627 86.2803C52.8628 86.4701 53.4684 86.7341 53.8795 87.0725C54.2938 87.4109 54.501 87.8868 54.501 88.5004C54.501 89.1202 54.2495 89.6183 53.7467 89.9946C53.2439 90.3678 52.5671 90.5544 51.7164 90.5544C50.8721 90.5544 50.1905 90.3694 49.6719 89.9994C49.1533 89.6262 48.894 89.1107 48.894 88.4529ZM59.6581 90.412V83.5053H62.2149C63.0593 83.5053 63.7123 83.6982 64.174 84.084C64.6389 84.4698 64.8713 84.9932 64.8713 85.6542C64.8713 86.3151 64.6389 86.8448 64.174 87.2433C63.7123 87.6386 63.0593 87.8362 62.2149 87.8362H61.0242V90.412H59.6581ZM61.0242 86.8401H62.2007C62.6845 86.8401 63.0229 86.7278 63.2158 86.5033C63.4087 86.2756 63.5067 85.9941 63.5099 85.6589C63.5099 85.3205 63.4135 85.0438 63.2205 84.8288C63.0276 84.6106 62.6877 84.5015 62.2007 84.5015H61.0242V86.8401ZM63.5906 90.412L61.9492 87.2243L63.4198 87.1674L65.1417 90.412H63.5906ZM66.9257 90.412V83.5053H71.7453V84.5109H68.2872V86.3467H71.2994V87.3571H68.2872V89.4064H71.7975V90.412H66.9257ZM72.8984 90.412L75.422 83.4721H76.8925L79.4399 90.412H77.9788L76.2711 85.4644C76.23 85.3506 76.1952 85.2415 76.1667 85.1371C76.1383 85.0327 76.1114 84.9252 76.0861 84.8145H76.0434C76.0181 84.9252 75.9896 85.0327 75.958 85.1371C75.9296 85.2415 75.8964 85.3506 75.8584 85.4644L74.1459 90.412H72.8984ZM74.1554 88.8134L74.5065 87.8125L77.7227 87.8173L78.0737 88.8182L74.1554 88.8134ZM81.0057 90.412V83.5053H82.3718V89.4064H85.645V90.412H81.0057ZM85.5078 84.5109V83.5053H91.2713V84.5109H89.0702V90.412H87.7041V84.5109H85.5078ZM94.6255 90.412V87.9691L92.2346 83.5053H93.7716L95.1235 86.1617C95.1741 86.2566 95.2184 86.3515 95.2564 86.4464C95.2975 86.5381 95.3354 86.6314 95.3702 86.7262H95.4176C95.4524 86.6314 95.4888 86.5381 95.5267 86.4464C95.5679 86.3515 95.6121 86.2566 95.6596 86.1617L97.0305 83.5053H98.354L95.9916 87.9264V90.412H94.6255ZM102.913 87.1579V86.7594C102.913 85.681 103.214 84.8462 103.815 84.2548C104.419 83.6602 105.179 83.363 106.096 83.363C107.01 83.363 107.719 83.5749 108.222 83.9986C108.724 84.4192 108.993 84.9347 109.028 85.5451L109.033 85.5972H107.643V85.5498C107.624 85.2525 107.488 84.9853 107.235 84.7481C106.982 84.5109 106.598 84.3923 106.082 84.3923C105.567 84.3923 105.143 84.5963 104.811 85.0043C104.479 85.4091 104.313 85.9799 104.313 86.7167V87.2006C104.313 87.9438 104.482 88.5177 104.82 88.9225C105.162 89.3242 105.636 89.525 106.243 89.525C106.55 89.525 106.814 89.4949 107.036 89.4349C107.26 89.3748 107.475 89.2752 107.681 89.136V87.8173H106.144V86.8211H109.033V89.5819C108.78 89.8254 108.419 90.0484 107.951 90.2508C107.483 90.4532 106.914 90.5544 106.243 90.5544C105.225 90.5544 104.416 90.2587 103.815 89.6673C103.214 89.0728 102.913 88.2363 102.913 87.1579ZM111.035 90.412V83.5053H113.592C114.436 83.5053 115.089 83.6982 115.551 84.084C116.016 84.4698 116.248 84.9932 116.248 85.6542C116.248 86.3151 116.016 86.8448 115.551 87.2433C115.089 87.6386 114.436 87.8362 113.592 87.8362H112.401V90.412H111.035ZM112.401 86.8401H113.577C114.061 86.8401 114.4 86.7278 114.593 86.5033C114.786 86.2756 114.884 85.9941 114.887 85.6589C114.887 85.3205 114.79 85.0438 114.597 84.8288C114.404 84.6106 114.065 84.5015 113.577 84.5015H112.401V86.8401ZM114.967 90.412L113.326 87.2243L114.797 87.1674L116.519 90.412H114.967ZM118.037 87.1579V86.7594C118.037 85.681 118.336 84.8462 118.933 84.2548C119.531 83.6602 120.301 83.363 121.244 83.363C122.189 83.363 122.962 83.6602 123.563 84.2548C124.164 84.8462 124.465 85.681 124.465 86.7594V87.1579C124.465 88.2363 124.164 89.0728 123.563 89.6673C122.962 90.2587 122.189 90.5544 121.244 90.5544C120.301 90.5544 119.531 90.2587 118.933 89.6673C118.336 89.0728 118.037 88.2363 118.037 87.1579ZM119.436 87.1958C119.436 87.9327 119.599 88.5035 119.925 88.9083C120.254 89.3131 120.695 89.5155 121.248 89.5155C121.802 89.5155 122.243 89.3131 122.572 88.9083C122.901 88.5035 123.065 87.9327 123.065 87.1958V86.7215C123.065 85.9846 122.901 85.4138 122.572 85.009C122.243 84.6042 121.802 84.4018 121.248 84.4018C120.695 84.4018 120.254 84.6042 119.925 85.009C119.599 85.4138 119.436 85.9846 119.436 86.7215V87.1958ZM126.519 87.9074V83.5053H127.885V87.9264C127.885 88.4766 128.016 88.8798 128.279 89.136C128.541 89.389 128.892 89.5155 129.332 89.5155C129.772 89.5155 130.123 89.389 130.385 89.136C130.651 88.8798 130.783 88.4766 130.783 87.9264V83.5053H132.097V87.9074C132.097 88.7992 131.827 89.4633 131.286 89.8997C130.749 90.3361 130.089 90.5544 129.308 90.5544C128.524 90.5544 127.863 90.3361 127.325 89.8997C126.788 89.4633 126.519 88.7992 126.519 87.9074ZM134.413 90.412V83.5053H137.041C137.895 83.5053 138.551 83.7029 139.009 84.0982C139.468 84.4904 139.697 85.0264 139.697 85.7063C139.697 86.3863 139.468 86.927 139.009 87.3287C138.551 87.7271 137.893 87.9264 137.036 87.9264H135.774V90.412H134.413ZM135.779 86.9255H137.003C137.496 86.9255 137.841 86.81 138.037 86.5792C138.233 86.3483 138.331 86.0574 138.331 85.7063C138.331 85.3553 138.233 85.0675 138.037 84.843C137.841 84.6185 137.496 84.5062 137.003 84.5062H135.779V86.9255Z" fill="black"/>
</svg>
