<svg width="743" height="504" viewBox="0 0 743 504" fill="none" xmlns="http://www.w3.org/2000/svg">
<path d="M245.943 322.156C236.849 328.255 231.758 340.148 230.917 344.074C230.077 347.999 230.275 352.269 230.275 352.269H243.769H257.806L257.806 316.845C257.806 316.845 253.259 316.845 245.943 322.156Z" fill="white"/>
<path d="M230.254 381.789V399.5H244.03H257.806V381.789V364.077H244.03H230.254V381.789Z" fill="white"/>
<path d="M297.165 381.789V399.5H283.389H269.614V381.789V364.077H283.389H297.165V381.789Z" fill="white"/>
<path d="M281.476 322.156C290.571 328.255 295.662 340.148 296.502 344.074C297.343 347.999 297.145 352.269 297.145 352.269H283.651H269.614L269.614 316.845C269.614 316.845 274.161 316.845 281.476 322.156Z" fill="white"/>
<path d="M433.836 161.374C426.271 234.19 434.436 304.053 450.564 335.541C466.692 367.029 500.852 385.724 516.07 390.644C531.287 395.564 554.272 394.386 615.396 394.386H683.769V290.952V187.517H621.078H558.386V228.501V269.484H579.936H601.682L601.095 290.366L600.507 311.443L581.7 311.248C564.46 311.248 561.521 310.663 549.962 305.003C535.465 297.782 528.608 290.756 521.359 275.339C516.266 264.8 516.266 263.824 516.07 217.962C515.678 167.806 517.637 145.753 523.122 134.824C528.412 124.48 540.363 113.356 552.509 107.697L563.284 102.623L623.624 102.037L683.769 101.256V60.468V19.6798H616.18C561.913 19.6798 545.456 20.2652 533.506 22.8023C516.07 26.3151 498.83 33.7312 484.92 43.8795C475.516 50.7101 441.401 88.5591 433.836 161.374Z" fill="white"/>
<path d="M269.614 19.6797V264.694L393.931 269.606C393.931 269.606 449.684 267.646 480.188 238.126C510.692 208.606 514.628 193.846 517.58 145.811C521.382 83.9362 491.012 56.0874 484.124 49.1995C477.236 42.3116 452.924 25.9837 412.292 20.2636L301.57 19.6797H269.614ZM405.038 107.66C409.909 110.58 416.535 116.614 419.457 120.896C424.134 127.903 424.718 130.823 424.718 144.059C424.718 157.684 424.134 159.825 418.873 167.417C415.365 172.477 409.13 177.733 403.284 180.653C394.906 185.13 391.398 185.713 373.082 185.713H352.622L352.038 145.811C351.843 124.01 352.038 104.74 352.622 103.183C353.402 101.042 357.883 100.653 374.836 101.431C393.347 102.21 397.049 102.989 405.038 107.66Z" fill="white"/>
<path d="M269.614 142.679V268.629L395.565 393.596H523.483L269.614 142.679Z" fill="white"/>
<path d="M186.136 124.951V230.418L144.424 271.9L102.712 313.382H61.1958H19.6797V354.473V395.564H81.758H144.032L207.09 332.558L269 268.5C246.479 247.367 283.296 281.806 269 268.5V19.6799H186.136V124.951Z" fill="white"/>
<path d="M20.288 451.203V449.938H27.8073V451.836C27.8073 453.718 28.1399 455.072 28.805 455.9C29.4702 456.727 30.4841 457.141 31.8468 457.141C33.1446 457.141 34.1424 456.703 34.8399 455.827C35.5375 454.95 35.8863 453.45 35.8863 451.325V426.942H44.087V450.4C44.087 454.423 43.073 457.522 41.0452 459.696C39.0335 461.87 36.0891 462.956 32.2118 462.956C28.3995 462.956 25.455 462.007 23.3785 460.109C21.3182 458.195 20.288 455.226 20.288 451.203ZM50.0508 462.372L62.0233 426.869H71.0026L82.8777 462.372H74.6041L66.9874 438.038C66.7928 437.422 66.6305 436.862 66.5008 436.359C66.3872 435.856 66.2818 435.402 66.1844 434.996H66.0871C65.9897 435.402 65.8762 435.856 65.7464 436.359C65.6166 436.846 65.4625 437.397 65.284 438.014L57.8864 462.372H50.0508ZM56.8887 455.072L58.2271 449.451H74.3121L75.7478 455.072H56.8887ZM87.5762 445.655V443.659C87.5762 437.689 88.9551 433.317 91.713 430.543C94.4871 427.769 98.0967 426.382 102.542 426.382C106.808 426.382 110.142 427.437 112.543 429.546C114.96 431.638 116.169 434.623 116.169 438.501V440.107H108.236V437.965C108.236 436.116 107.766 434.704 106.825 433.731C105.9 432.741 104.497 432.247 102.615 432.247C100.636 432.247 99.0701 433.001 97.9183 434.51C96.7664 436.018 96.1905 438.436 96.1905 441.761V447.553C96.1905 450.797 96.7664 453.207 97.9183 454.78C99.0863 456.354 100.684 457.141 102.712 457.141C104.529 457.141 105.892 456.621 106.8 455.583C107.725 454.545 108.204 453.004 108.236 450.96V449.281H116.169V451.203C116.104 454.788 114.887 457.643 112.519 459.769C110.15 461.878 106.825 462.932 102.542 462.932C97.9507 462.932 94.3087 461.529 91.6157 458.722C88.9227 455.9 87.5762 451.544 87.5762 445.655ZM123.301 445.655V443.659C123.301 437.787 124.704 433.439 127.511 430.616C130.317 427.777 133.919 426.358 138.315 426.358C142.744 426.358 146.362 427.777 149.168 430.616C151.975 433.439 153.378 437.787 153.378 443.659V445.655C153.378 451.463 151.975 455.802 149.168 458.674C146.362 461.529 142.744 462.956 138.315 462.956C133.919 462.956 130.317 461.529 127.511 458.674C124.704 455.802 123.301 451.463 123.301 445.655ZM131.793 447.48C131.793 450.822 132.378 453.271 133.546 454.829C134.714 456.37 136.303 457.141 138.315 457.141C140.343 457.141 141.941 456.37 143.109 454.829C144.293 453.271 144.885 450.822 144.885 447.48V441.883C144.885 438.509 144.293 436.067 143.109 434.558C141.941 433.033 140.343 432.271 138.315 432.271C136.303 432.271 134.714 433.033 133.546 434.558C132.378 436.067 131.793 438.509 131.793 441.883V447.48ZM148.438 468.748L139.58 460.596L144.131 455.656L153.037 463.686L148.438 468.748ZM161.921 449.427V426.942H170.098V450.351C170.098 452.817 170.552 454.561 171.46 455.583C172.385 456.605 173.658 457.116 175.281 457.116C176.871 457.116 178.128 456.605 179.053 455.583C179.977 454.561 180.44 452.817 180.44 450.351V426.942H188.543V449.427C188.543 454.05 187.342 457.465 184.941 459.671C182.54 461.861 179.336 462.956 175.329 462.956C171.225 462.956 167.964 461.861 165.547 459.671C163.13 457.465 161.921 454.05 161.921 449.427ZM198.035 462.372V426.942H221.226V433.366H205.993V441.396H219.06V447.237H205.993V456.119H221.542V462.372H198.035ZM228.455 452.712V451.203H236.193V452.201C236.177 453.92 236.648 455.194 237.605 456.021C238.578 456.849 239.933 457.262 241.669 457.262C243.339 457.262 244.629 456.881 245.538 456.119C246.446 455.356 246.9 454.326 246.9 453.028C246.9 451.844 246.422 450.887 245.465 450.157C244.508 449.427 242.593 448.632 239.722 447.772C236.039 446.653 233.314 445.217 231.545 443.465C229.793 441.713 228.917 439.425 228.917 436.602C228.917 433.455 230.053 430.965 232.324 429.132C234.595 427.299 237.629 426.382 241.425 426.382C245.205 426.382 248.247 427.258 250.551 429.01C252.87 430.762 254.03 433.196 254.03 436.31V437.527H246.414V436.773C246.414 435.345 246 434.226 245.173 433.415C244.345 432.587 243.137 432.174 241.547 432.174C239.892 432.174 238.684 432.522 237.921 433.22C237.175 433.901 236.802 434.81 236.802 435.945C236.802 437.016 237.296 437.876 238.286 438.525C239.276 439.174 241.247 439.936 244.199 440.812C247.768 441.867 250.421 443.286 252.157 445.071C253.892 446.839 254.76 449.248 254.76 452.298C254.76 455.64 253.568 458.252 251.183 460.134C248.798 462.016 245.651 462.956 241.742 462.956C237.848 462.956 234.66 462.089 232.178 460.353C229.696 458.617 228.455 456.07 228.455 452.712ZM279.074 462.372V426.942H292.945C296.611 426.942 299.491 427.956 301.583 429.984C303.692 431.995 304.747 434.704 304.747 438.111C304.747 441.583 303.652 444.373 301.462 446.482C299.288 448.591 296.425 449.646 292.872 449.646H287.275V462.372H279.074ZM287.275 444.073H291.558C293.375 444.073 294.648 443.554 295.378 442.516C296.124 441.477 296.498 440.123 296.498 438.452C296.498 436.781 296.124 435.434 295.378 434.412C294.648 433.374 293.375 432.855 291.558 432.855H287.275V444.073ZM297.276 462.372L290.146 446.628L297.812 445.095L306.28 462.372H297.276ZM313.095 462.372V426.942H336.286V433.366H321.053V441.396H334.12V447.237H321.053V456.119H336.602V462.372H313.095ZM341.106 462.372L353.079 426.869H362.058L373.933 462.372H365.659L358.043 438.038C357.848 437.422 357.686 436.862 357.556 436.359C357.443 435.856 357.337 435.402 357.24 434.996H357.142C357.045 435.402 356.932 435.856 356.802 436.359C356.672 436.846 356.518 437.397 356.339 438.014L348.942 462.372H341.106ZM347.944 455.072L349.282 449.451H365.367L366.803 455.072H347.944ZM380.408 462.372V426.942H388.609V455.948H402.625V462.372H380.408ZM402.676 433.366V426.942H430.417V433.366H420.683V462.372H412.409V433.366H402.676ZM446.406 462.372V449.037L434.921 426.942H443.851L449.935 438.987C450.13 439.393 450.3 439.774 450.446 440.131C450.608 440.472 450.762 440.837 450.908 441.226H451.03C451.176 440.837 451.322 440.472 451.468 440.131C451.63 439.774 451.809 439.393 452.003 438.987L458.087 426.942H466.02L454.68 448.891V462.372H446.406ZM487.657 445.655V443.659C487.657 437.998 489.028 433.699 491.769 430.762C494.527 427.826 498.226 426.358 502.866 426.358C507.084 426.358 510.336 427.396 512.624 429.473C514.911 431.533 516.063 434.193 516.079 437.454V438.33H508.195V437.795C508.195 436.156 507.724 434.858 506.784 433.901C505.843 432.928 504.439 432.441 502.574 432.441C500.578 432.441 499.005 433.22 497.853 434.777C496.701 436.335 496.125 438.728 496.125 441.956V447.456C496.125 450.635 496.742 453.036 497.975 454.658C499.224 456.265 500.96 457.068 503.182 457.068C504.285 457.068 505.242 456.93 506.054 456.654C506.865 456.378 507.619 455.956 508.317 455.389V449.281H502.695V443.635L516.152 443.611V458.041C515.179 459.144 513.605 460.239 511.431 461.326C509.258 462.413 506.483 462.956 503.109 462.956C498.356 462.956 494.592 461.488 491.818 458.552C489.044 455.616 487.657 451.317 487.657 445.655ZM524.817 462.372V426.942H538.688C542.354 426.942 545.234 427.956 547.326 429.984C549.435 431.995 550.49 434.704 550.49 438.111C550.49 441.583 549.395 444.373 547.205 446.482C545.031 448.591 542.168 449.646 538.615 449.646H533.018V462.372H524.817ZM533.018 444.073H537.301C539.118 444.073 540.391 443.554 541.121 442.516C541.867 441.477 542.241 440.123 542.241 438.452C542.241 436.781 541.867 435.434 541.121 434.412C540.391 433.374 539.118 432.855 537.301 432.855H533.018V444.073ZM543.019 462.372L535.889 446.628L543.555 445.095L552.023 462.372H543.019ZM557.889 445.655V443.659C557.889 437.738 559.293 433.374 562.099 430.568C564.906 427.761 568.507 426.358 572.904 426.358C577.316 426.358 580.926 427.761 583.732 430.568C586.555 433.374 587.967 437.738 587.967 443.659V445.655C587.967 451.576 586.555 455.94 583.732 458.747C580.926 461.553 577.316 462.956 572.904 462.956C568.507 462.956 564.906 461.553 562.099 458.747C559.293 455.94 557.889 451.576 557.889 445.655ZM566.382 447.504C566.382 450.895 566.966 453.353 568.134 454.877C569.302 456.386 570.892 457.141 572.904 457.141C574.931 457.141 576.529 456.386 577.697 454.877C578.882 453.353 579.474 450.895 579.474 447.504V441.834C579.474 438.46 578.882 436.027 577.697 434.534C576.529 433.025 574.931 432.271 572.904 432.271C570.892 432.271 569.302 433.025 568.134 434.534C566.966 436.027 566.382 438.46 566.382 441.834V447.504ZM596.51 449.427V426.942H604.686V450.351C604.686 452.817 605.14 454.561 606.049 455.583C606.974 456.605 608.247 457.116 609.869 457.116C611.459 457.116 612.716 456.605 613.641 455.583C614.566 454.561 615.028 452.817 615.028 450.351V426.942H623.132V449.427C623.132 454.05 621.931 457.465 619.53 459.671C617.129 461.861 613.925 462.956 609.918 462.956C605.814 462.956 602.553 461.861 600.136 459.671C597.718 457.465 596.51 454.05 596.51 449.427ZM632.624 462.372V426.942H647.054C650.834 426.942 653.73 428.021 655.741 430.178C657.753 432.32 658.759 435.207 658.759 438.841C658.759 442.475 657.761 445.371 655.766 447.529C653.787 449.686 650.85 450.765 646.957 450.765H640.824V462.372H632.624ZM640.824 445.046H645.399C647.33 445.046 648.668 444.479 649.414 443.343C650.177 442.191 650.558 440.731 650.558 438.963C650.558 437.211 650.177 435.775 649.414 434.656C648.668 433.52 647.33 432.952 645.399 432.952H640.824V445.046Z" fill="white"/>
</svg>
