<svg width="800" height="800" viewBox="0 0 800 800" fill="none" xmlns="http://www.w3.org/2000/svg">
<path d="M349.025 556.975C355.175 550.15 364.05 545.875 373.9 545.875C392.375 545.875 407.35 560.85 407.35 579.325C407.35 579.725 407.35 580.125 407.325 580.525V580.475L401.4 742.55C400.725 760.525 386 774.875 367.9 774.875C365.975 774.875 364.075 774.725 362.25 774.4L362.45 774.425C318.375 766.85 279.175 750.375 245.2 726.875L246.175 727.5C237.4 721.375 231.725 711.325 231.725 699.95C231.725 691.3 235 683.425 240.375 677.5L240.35 677.525L348.975 556.8L349.025 556.975ZM321.325 510.85L163.8 550.15C161.375 550.775 158.6 551.125 155.75 551.125C138.575 551.125 124.425 538.2 122.45 521.55L122.425 521.4C121.275 511.675 120.6 500.425 120.6 489.025C120.6 455.925 126.175 424.1 136.475 394.5L135.875 396.525C140.45 383.175 152.9 373.75 167.55 373.75C172.9 373.75 177.975 375 182.45 377.25L182.25 377.15L328.075 448.35C339.325 453.875 346.925 465.275 346.925 478.425C346.925 494 336.25 507.1 321.825 510.775L321.6 510.825L321.325 510.85ZM348.1 380.575L195.5 116.225C192.7 111.45 191.05 105.7 191.05 99.5499C191.05 86.3249 198.725 74.8749 209.85 69.4499L210.05 69.3749C258 45.9249 313.875 30.1749 372.825 25.3499L374.5 25.2499C375.275 25.1749 376.175 25.1499 377.1 25.1499C395.55 25.1499 410.525 40.1249 410.525 58.5749V58.6249V363.8C410.525 382.275 395.55 397.25 377.075 397.25C364.75 397.25 354 390.6 348.2 380.675L348.125 380.525L348.1 380.575ZM497.95 517.025L652.35 567.2C665.875 571.7 675.475 584.25 675.475 599.05C675.475 604.275 674.275 609.225 672.125 613.65L672.2 613.45C653.25 652.675 627.225 685.675 595.5 712.075L595.025 712.45C589.275 717.2 581.85 720.1 573.725 720.1C561.8 720.1 551.325 713.875 545.375 704.475L545.3 704.325L459.075 566.575C455.875 561.55 454 555.425 454 548.85C454 530.4 468.95 515.45 487.4 515.45C491.075 515.45 494.625 516.05 497.925 517.15L497.7 517.075L497.95 517.025ZM654.925 418.55L498.875 463.325C496.125 464.15 492.95 464.625 489.675 464.625C471.25 464.625 456.3 449.675 456.3 431.25C456.3 424.2 458.475 417.675 462.2 412.3L462.125 412.4L552.875 277.825C558.975 268.875 569.125 263.075 580.65 263.075C589.125 263.075 596.875 266.225 602.775 271.425L602.75 271.4C634 299 659 332.875 675.875 371.15L676.6 372.975C678.35 376.925 679.375 381.525 679.375 386.35C679.375 401.55 669.25 414.375 655.4 418.5L655.175 418.55H654.925Z" fill="white"/>
</svg>
